<svg width="20" height="17" viewBox="0 0 20 17" fill="none" xmlns="http://www.w3.org/2000/svg">
<path d="M19.3961 0.0298934L0.280497 7.20398C-0.0831693 7.34048 -0.0963776 7.82779 0.259372 7.98209L4.48529 9.81519C4.59974 9.8649 4.68666 9.95874 4.72433 10.0734L6.53741 15.5888C6.629 15.8673 6.98124 15.9753 7.22512 15.7997L10.381 13.5269C10.5317 13.4183 10.7378 13.4132 10.8942 13.5141L16.1871 16.9274C16.4512 17.0976 16.8112 16.9532 16.869 16.6539L19.9923 0.499998C20.0554 0.173956 19.7189 -0.0912673 19.3961 0.0298934ZM7.81253 10.5975L7.24228 13.6963L5.77025 9.25937L15.8623 3.27172L7.81253 10.5975Z" fill="#1A1B26"/>
</svg>
